# xmcd
#
# Track frame offsets:
#	150
#	17480
#	30488
#	42163
#	60348
#	76161
#	93946
#	111906
#	128684
#	144802
#	155765
#	169465
#	184628
#	200343
#	213256
#	228181
#	246356
#	263321
#	277499
#	292444
#	304177
#
# Disc length: 4207 seconds
#
# Revision: 1
# Processed by: cddbd v1.5.2PL0 Copyright (c) Steve Scherf et al.
# Submitted via: audiograbber 1.83.01
#
DISCID=22106d15
DTITLE=Various Artist - Halland's Country Hits Volume 1
DYEAR=1900
DGENRE=
TTITLE0=Tracy Lawrence - Today's Lonely Fool
TTITLE1=Chris LeDoux - Cadillac Ranch
TTITLE2=Chris LeDoux With Garth Brooks - Whatcha Gonna Do With A Cowboy
TTITLE3=Little Texas - First Time For Everything
TTITLE4=Little Texas - God Blessed Texas
TTITLE5=Little Texas - I'd Rather Miss You
TTITLE6=Little Texas - What Might Have Been
TTITLE7=Little Texas - You And Forever Me
TTITLE8=Patty Loveless - Blame It On Your Heart
TTITLE9=Patty Loveless - Chains
TTITLE10=Patty Loveless - I'm That Kind Of Girl
TTITLE11=Kathy Mattea - Eighteen Wheels And A Dozen Roses
TTITLE12=Matthews, Wright and King - I Got A Love
TTITLE13=Matthews, Wright and King - The Power Of Love
TTITLE14=McBride and The Ride - Can I Count On You
TTITLE15=McBride and The Ride - Going Out Of My Mind
TTITLE16=McBride and The Ride - Just One Night
TTITLE17=McBride and The Ride - Love On The Loose, Heart On The Run
TTITLE18=McBride and The Ride - Sacred Ground
TTITLE19=Martina McBride - My Baby Loves Me
TTITLE20=Mel Mcdaniel - Stand Up
EXTD=
EXTT0=
EXTT1=
EXTT2=
EXTT3=
EXTT4=
EXTT5=
EXTT6=
EXTT7=
EXTT8=
EXTT9=
EXTT10=
EXTT11=
EXTT12=
EXTT13=
EXTT14=
EXTT15=
EXTT16=
EXTT17=
EXTT18=
EXTT19=
EXTT20=
PLAYORDER=
